G04 (created by PCBNEW-RS274X (2012-apr-16-27)-stable) date Thu 02 May 2013 10:59:58 AM CLT*
G01*
G70*
G90*
%MOIN*%
G04 Gerber Fmt 3.4, Leading zero omitted, Abs format*
%FSLAX34Y34*%
G04 APERTURE LIST*
%ADD10C,0.006000*%
%ADD11R,0.059100X0.059100*%
%ADD12C,0.059100*%
%ADD13R,0.017700X0.078700*%
%ADD14R,0.078700X0.017700*%
%ADD15R,0.060000X0.080000*%
%ADD16R,0.080000X0.060000*%
%ADD17R,0.055000X0.055000*%
%ADD18C,0.056000*%
%ADD19C,0.070000*%
%ADD20C,0.008000*%
%ADD21C,0.010000*%
G04 APERTURE END LIST*
G54D10*
G54D11*
X10650Y-15400D03*
G54D12*
X11650Y-15400D03*
X12650Y-15400D03*
X13650Y-15400D03*
G54D13*
X20993Y-14904D03*
X20678Y-14904D03*
X20363Y-14904D03*
X20048Y-14904D03*
X19733Y-14904D03*
X19418Y-14904D03*
X19103Y-14904D03*
X18788Y-14904D03*
X18790Y-18670D03*
X21000Y-18670D03*
X20680Y-18670D03*
X20360Y-18670D03*
X20050Y-18670D03*
X19730Y-18670D03*
X19420Y-18670D03*
X19100Y-18670D03*
G54D14*
X18000Y-15688D03*
X18000Y-16002D03*
X18000Y-16318D03*
X18000Y-16632D03*
X18000Y-16948D03*
X18000Y-17262D03*
X18000Y-17578D03*
X18000Y-17892D03*
X21780Y-15690D03*
X21780Y-16000D03*
X21780Y-16320D03*
X21780Y-16630D03*
X21780Y-16940D03*
X21780Y-17260D03*
X21780Y-17580D03*
X21780Y-17900D03*
G54D15*
X21050Y-20300D03*
X19750Y-20300D03*
X21050Y-22300D03*
X19750Y-22300D03*
G54D16*
X18900Y-11250D03*
X18900Y-09950D03*
X20900Y-11250D03*
X20900Y-09950D03*
X08700Y-16550D03*
X08700Y-17850D03*
X08700Y-12950D03*
X08700Y-11650D03*
G54D17*
X23400Y-19300D03*
X23400Y-20300D03*
X22400Y-20300D03*
G54D18*
X18900Y-12800D03*
X20900Y-12800D03*
G54D19*
X07000Y-10300D03*
X07000Y-11300D03*
X07000Y-12300D03*
X07000Y-13300D03*
X07000Y-14300D03*
X07000Y-15300D03*
X07000Y-16300D03*
X07000Y-17300D03*
X07000Y-18800D03*
X07000Y-19800D03*
X07000Y-20800D03*
X07000Y-21800D03*
X07000Y-22800D03*
X07000Y-23800D03*
X07000Y-24800D03*
X07000Y-25800D03*
X27000Y-21300D03*
X27000Y-20300D03*
X27000Y-19300D03*
X27000Y-18300D03*
X27000Y-17300D03*
X27000Y-16300D03*
X27000Y-15300D03*
X27000Y-14300D03*
X27000Y-13300D03*
X27000Y-12300D03*
X27000Y-11300D03*
X27000Y-10300D03*
G54D17*
X08700Y-19100D03*
X15850Y-14850D03*
X15850Y-15950D03*
G54D20*
X27000Y-11300D02*
X27000Y-10300D01*
X20363Y-14904D02*
X20363Y-14213D01*
X20680Y-16980D02*
X20680Y-18670D01*
X20363Y-16663D02*
X20680Y-16980D01*
X21400Y-15300D02*
X20363Y-16337D01*
X20350Y-16400D02*
X20363Y-16400D01*
X20200Y-14050D02*
X19750Y-14050D01*
X20363Y-16500D02*
X20363Y-16663D01*
X20680Y-19930D02*
X21050Y-20300D01*
X19733Y-14050D02*
X19750Y-14050D01*
X20363Y-14213D02*
X20200Y-14050D01*
X19733Y-14904D02*
X19733Y-14050D01*
X10650Y-15400D02*
X10650Y-15050D01*
X20363Y-16337D02*
X20363Y-16387D01*
X10650Y-15050D02*
X10650Y-13600D01*
X10650Y-13600D02*
X08700Y-11650D01*
X17700Y-13600D02*
X18150Y-14050D01*
X18150Y-14050D02*
X19733Y-14050D01*
X10650Y-13600D02*
X17700Y-13600D01*
X27000Y-15300D02*
X21400Y-15300D01*
X20363Y-16387D02*
X20350Y-16400D01*
X20363Y-16400D02*
X20363Y-16500D01*
X20680Y-18670D02*
X20680Y-19930D01*
X27000Y-16300D02*
X27000Y-15300D01*
X20363Y-16337D02*
X20363Y-16400D01*
X20363Y-14904D02*
X20363Y-16337D01*
X08700Y-17850D02*
X08700Y-19100D01*
X11650Y-15400D02*
X11650Y-15800D01*
X11650Y-15800D02*
X11650Y-15850D01*
X15350Y-16450D02*
X15850Y-15950D01*
X12250Y-16450D02*
X15350Y-16450D01*
X11650Y-15850D02*
X12250Y-16450D01*
X18000Y-16318D02*
X16218Y-16318D01*
X16218Y-16318D02*
X15850Y-15950D01*
X18900Y-17800D02*
X12900Y-23800D01*
X18000Y-16948D02*
X18798Y-16948D01*
X12900Y-23800D02*
X07000Y-23800D01*
X18900Y-17050D02*
X18900Y-17800D01*
X07000Y-23800D02*
X07000Y-24800D01*
X18798Y-16948D02*
X18900Y-17050D01*
X12738Y-17262D02*
X10200Y-19800D01*
X07000Y-19800D02*
X07000Y-20800D01*
X10200Y-19800D02*
X07000Y-19800D01*
X18000Y-17262D02*
X12738Y-17262D01*
X12650Y-15400D02*
X12700Y-15400D01*
X12650Y-15400D02*
X12700Y-15400D01*
X13550Y-16250D02*
X14450Y-16250D01*
X17202Y-16002D02*
X16050Y-14850D01*
X18000Y-16002D02*
X17202Y-16002D01*
X14450Y-16250D02*
X15850Y-14850D01*
X12700Y-15400D02*
X13550Y-16250D01*
X16050Y-14850D02*
X15850Y-14850D01*
X19750Y-22300D02*
X19750Y-20300D01*
X20048Y-16212D02*
X19730Y-16530D01*
X19750Y-20300D02*
X19750Y-18690D01*
X20048Y-14904D02*
X20048Y-16212D01*
X19418Y-16218D02*
X19730Y-16530D01*
X19730Y-16530D02*
X19730Y-18670D01*
X19418Y-15950D02*
X19418Y-16218D01*
X19418Y-14904D02*
X19418Y-15950D01*
X19400Y-15950D02*
X19418Y-15950D01*
X19418Y-15950D02*
X19400Y-15950D01*
X13750Y-15400D02*
X13650Y-15400D01*
X17150Y-14050D02*
X19050Y-15950D01*
X15100Y-14050D02*
X17150Y-14050D01*
X13750Y-15400D02*
X15100Y-14050D01*
X19418Y-15950D02*
X19050Y-15950D01*
X19750Y-18690D02*
X19730Y-18670D01*
X20900Y-11250D02*
X20900Y-12800D01*
X20993Y-14904D02*
X20993Y-12893D01*
X20993Y-12893D02*
X20900Y-12800D01*
X20050Y-18670D02*
X20050Y-19450D01*
X20050Y-19450D02*
X20400Y-19800D01*
X20400Y-19800D02*
X20400Y-21650D01*
X20400Y-21650D02*
X21050Y-22300D01*
X23400Y-18100D02*
X23400Y-19300D01*
X21780Y-17580D02*
X22880Y-17580D01*
X22880Y-17580D02*
X23400Y-18100D01*
X21780Y-17900D02*
X21780Y-18680D01*
X21780Y-18680D02*
X23400Y-20300D01*
X08700Y-12950D02*
X08700Y-16550D01*
X08982Y-16832D02*
X08700Y-16550D01*
X11318Y-16632D02*
X10800Y-17150D01*
X10800Y-17150D02*
X09300Y-17150D01*
X09300Y-17150D02*
X08700Y-16550D01*
X18000Y-16632D02*
X11318Y-16632D01*
X21000Y-18670D02*
X21070Y-18670D01*
X22400Y-20000D02*
X22400Y-20300D01*
X21070Y-18670D02*
X22400Y-20000D01*
X18900Y-11250D02*
X18900Y-12800D01*
X20678Y-14904D02*
X20678Y-13878D01*
X19600Y-12800D02*
X18900Y-12800D01*
X20678Y-13878D02*
X19600Y-12800D01*
X07000Y-12300D02*
X07000Y-11300D01*
X07000Y-15300D02*
X07000Y-16300D01*
G54D10*
G36*
X18519Y-14340D02*
X18489Y-14370D01*
X18451Y-14461D01*
X18451Y-14560D01*
X18451Y-15346D01*
X18455Y-15356D01*
X18443Y-15351D01*
X18344Y-15351D01*
X17558Y-15351D01*
X17466Y-15389D01*
X17396Y-15459D01*
X17358Y-15550D01*
X17358Y-15649D01*
X17358Y-15712D01*
X17322Y-15712D01*
X16374Y-14764D01*
X16374Y-14526D01*
X16336Y-14434D01*
X16266Y-14364D01*
X16175Y-14326D01*
X16076Y-14326D01*
X15526Y-14326D01*
X15434Y-14364D01*
X15364Y-14434D01*
X15326Y-14525D01*
X15326Y-14624D01*
X15326Y-14964D01*
X14330Y-15960D01*
X14190Y-15960D01*
X14190Y-15478D01*
X14178Y-15266D01*
X14118Y-15121D01*
X14025Y-15096D01*
X13954Y-15167D01*
X13954Y-15025D01*
X13929Y-14932D01*
X13728Y-14860D01*
X13516Y-14872D01*
X13371Y-14932D01*
X13346Y-15025D01*
X13650Y-15329D01*
X13954Y-15025D01*
X13954Y-15167D01*
X13721Y-15400D01*
X14025Y-15704D01*
X14118Y-15679D01*
X14190Y-15478D01*
X14190Y-15960D01*
X13670Y-15960D01*
X13645Y-15935D01*
X13784Y-15928D01*
X13929Y-15868D01*
X13954Y-15775D01*
X13685Y-15506D01*
X13650Y-15471D01*
X13579Y-15400D01*
X13544Y-15365D01*
X13275Y-15096D01*
X13182Y-15121D01*
X13154Y-15197D01*
X13111Y-15092D01*
X12958Y-14939D01*
X12758Y-14856D01*
X12542Y-14856D01*
X12342Y-14939D01*
X12189Y-15092D01*
X12150Y-15185D01*
X12111Y-15092D01*
X11958Y-14939D01*
X11758Y-14856D01*
X11542Y-14856D01*
X11342Y-14939D01*
X11194Y-15087D01*
X11194Y-15056D01*
X11156Y-14964D01*
X11086Y-14894D01*
X10995Y-14856D01*
X10940Y-14856D01*
X10940Y-13890D01*
X17580Y-13890D01*
X17945Y-14255D01*
X18039Y-14318D01*
X18150Y-14340D01*
X18519Y-14340D01*
X18519Y-14340D01*
G37*
G54D21*
X18519Y-14340D02*
X18489Y-14370D01*
X18451Y-14461D01*
X18451Y-14560D01*
X18451Y-15346D01*
X18455Y-15356D01*
X18443Y-15351D01*
X18344Y-15351D01*
X17558Y-15351D01*
X17466Y-15389D01*
X17396Y-15459D01*
X17358Y-15550D01*
X17358Y-15649D01*
X17358Y-15712D01*
X17322Y-15712D01*
X16374Y-14764D01*
X16374Y-14526D01*
X16336Y-14434D01*
X16266Y-14364D01*
X16175Y-14326D01*
X16076Y-14326D01*
X15526Y-14326D01*
X15434Y-14364D01*
X15364Y-14434D01*
X15326Y-14525D01*
X15326Y-14624D01*
X15326Y-14964D01*
X14330Y-15960D01*
X14190Y-15960D01*
X14190Y-15478D01*
X14178Y-15266D01*
X14118Y-15121D01*
X14025Y-15096D01*
X13954Y-15167D01*
X13954Y-15025D01*
X13929Y-14932D01*
X13728Y-14860D01*
X13516Y-14872D01*
X13371Y-14932D01*
X13346Y-15025D01*
X13650Y-15329D01*
X13954Y-15025D01*
X13954Y-15167D01*
X13721Y-15400D01*
X14025Y-15704D01*
X14118Y-15679D01*
X14190Y-15478D01*
X14190Y-15960D01*
X13670Y-15960D01*
X13645Y-15935D01*
X13784Y-15928D01*
X13929Y-15868D01*
X13954Y-15775D01*
X13685Y-15506D01*
X13650Y-15471D01*
X13579Y-15400D01*
X13544Y-15365D01*
X13275Y-15096D01*
X13182Y-15121D01*
X13154Y-15197D01*
X13111Y-15092D01*
X12958Y-14939D01*
X12758Y-14856D01*
X12542Y-14856D01*
X12342Y-14939D01*
X12189Y-15092D01*
X12150Y-15185D01*
X12111Y-15092D01*
X11958Y-14939D01*
X11758Y-14856D01*
X11542Y-14856D01*
X11342Y-14939D01*
X11194Y-15087D01*
X11194Y-15056D01*
X11156Y-14964D01*
X11086Y-14894D01*
X10995Y-14856D01*
X10940Y-14856D01*
X10940Y-13890D01*
X17580Y-13890D01*
X17945Y-14255D01*
X18039Y-14318D01*
X18150Y-14340D01*
X18519Y-14340D01*
G54D10*
G36*
X20390Y-18028D02*
X20223Y-18028D01*
X20205Y-18035D01*
X20188Y-18028D01*
X20089Y-18028D01*
X19913Y-18028D01*
X19890Y-18037D01*
X19868Y-18028D01*
X19835Y-18028D01*
X19774Y-18089D01*
X19774Y-18113D01*
X19751Y-18136D01*
X19734Y-18174D01*
X19719Y-18136D01*
X19686Y-18103D01*
X19686Y-18089D01*
X19625Y-18028D01*
X19592Y-18028D01*
X19575Y-18035D01*
X19558Y-18028D01*
X19459Y-18028D01*
X19283Y-18028D01*
X19260Y-18037D01*
X19238Y-18028D01*
X19139Y-18028D01*
X19082Y-18028D01*
X19105Y-18005D01*
X19168Y-17911D01*
X19190Y-17800D01*
X19190Y-17050D01*
X19168Y-16939D01*
X19105Y-16845D01*
X19003Y-16743D01*
X18909Y-16680D01*
X18798Y-16658D01*
X18642Y-16658D01*
X18642Y-16495D01*
X18633Y-16475D01*
X18642Y-16456D01*
X18642Y-16357D01*
X18642Y-16181D01*
X18633Y-16160D01*
X18642Y-16140D01*
X18642Y-16041D01*
X18642Y-15865D01*
X18633Y-15845D01*
X18642Y-15826D01*
X18642Y-15727D01*
X18642Y-15551D01*
X18637Y-15540D01*
X18650Y-15546D01*
X18749Y-15546D01*
X18925Y-15546D01*
X18945Y-15537D01*
X18965Y-15546D01*
X19064Y-15546D01*
X19240Y-15546D01*
X19260Y-15537D01*
X19280Y-15546D01*
X19313Y-15546D01*
X19374Y-15485D01*
X19374Y-15466D01*
X19402Y-15438D01*
X19418Y-15399D01*
X19434Y-15438D01*
X19462Y-15466D01*
X19462Y-15485D01*
X19523Y-15546D01*
X19556Y-15546D01*
X19575Y-15537D01*
X19595Y-15546D01*
X19694Y-15546D01*
X19870Y-15546D01*
X19890Y-15537D01*
X19910Y-15546D01*
X19943Y-15546D01*
X20004Y-15485D01*
X20004Y-15466D01*
X20032Y-15438D01*
X20048Y-15399D01*
X20064Y-15438D01*
X20073Y-15447D01*
X20073Y-16334D01*
X20060Y-16400D01*
X20073Y-16465D01*
X20073Y-16500D01*
X20073Y-16663D01*
X20095Y-16774D01*
X20158Y-16868D01*
X20390Y-17100D01*
X20390Y-18028D01*
X20390Y-18028D01*
G37*
G54D21*
X20390Y-18028D02*
X20223Y-18028D01*
X20205Y-18035D01*
X20188Y-18028D01*
X20089Y-18028D01*
X19913Y-18028D01*
X19890Y-18037D01*
X19868Y-18028D01*
X19835Y-18028D01*
X19774Y-18089D01*
X19774Y-18113D01*
X19751Y-18136D01*
X19734Y-18174D01*
X19719Y-18136D01*
X19686Y-18103D01*
X19686Y-18089D01*
X19625Y-18028D01*
X19592Y-18028D01*
X19575Y-18035D01*
X19558Y-18028D01*
X19459Y-18028D01*
X19283Y-18028D01*
X19260Y-18037D01*
X19238Y-18028D01*
X19139Y-18028D01*
X19082Y-18028D01*
X19105Y-18005D01*
X19168Y-17911D01*
X19190Y-17800D01*
X19190Y-17050D01*
X19168Y-16939D01*
X19105Y-16845D01*
X19003Y-16743D01*
X18909Y-16680D01*
X18798Y-16658D01*
X18642Y-16658D01*
X18642Y-16495D01*
X18633Y-16475D01*
X18642Y-16456D01*
X18642Y-16357D01*
X18642Y-16181D01*
X18633Y-16160D01*
X18642Y-16140D01*
X18642Y-16041D01*
X18642Y-15865D01*
X18633Y-15845D01*
X18642Y-15826D01*
X18642Y-15727D01*
X18642Y-15551D01*
X18637Y-15540D01*
X18650Y-15546D01*
X18749Y-15546D01*
X18925Y-15546D01*
X18945Y-15537D01*
X18965Y-15546D01*
X19064Y-15546D01*
X19240Y-15546D01*
X19260Y-15537D01*
X19280Y-15546D01*
X19313Y-15546D01*
X19374Y-15485D01*
X19374Y-15466D01*
X19402Y-15438D01*
X19418Y-15399D01*
X19434Y-15438D01*
X19462Y-15466D01*
X19462Y-15485D01*
X19523Y-15546D01*
X19556Y-15546D01*
X19575Y-15537D01*
X19595Y-15546D01*
X19694Y-15546D01*
X19870Y-15546D01*
X19890Y-15537D01*
X19910Y-15546D01*
X19943Y-15546D01*
X20004Y-15485D01*
X20004Y-15466D01*
X20032Y-15438D01*
X20048Y-15399D01*
X20064Y-15438D01*
X20073Y-15447D01*
X20073Y-16334D01*
X20060Y-16400D01*
X20073Y-16465D01*
X20073Y-16500D01*
X20073Y-16663D01*
X20095Y-16774D01*
X20158Y-16868D01*
X20390Y-17100D01*
X20390Y-18028D01*
G54D10*
G36*
X27950Y-22279D02*
X27599Y-22630D01*
X27599Y-21419D01*
X27599Y-21181D01*
X27508Y-20961D01*
X27347Y-20800D01*
X27508Y-20639D01*
X27599Y-20419D01*
X27599Y-20181D01*
X27599Y-16419D01*
X27599Y-16181D01*
X27508Y-15961D01*
X27347Y-15800D01*
X27508Y-15639D01*
X27599Y-15419D01*
X27599Y-15181D01*
X27599Y-11419D01*
X27599Y-11181D01*
X27508Y-10961D01*
X27347Y-10800D01*
X27508Y-10639D01*
X27599Y-10419D01*
X27599Y-10181D01*
X27508Y-09961D01*
X27339Y-09792D01*
X27119Y-09701D01*
X26881Y-09701D01*
X26661Y-09792D01*
X26492Y-09961D01*
X26401Y-10181D01*
X26401Y-10419D01*
X26492Y-10639D01*
X26653Y-10800D01*
X26492Y-10961D01*
X26401Y-11181D01*
X26401Y-11419D01*
X26492Y-11639D01*
X26661Y-11808D01*
X26680Y-11815D01*
X26657Y-11886D01*
X27000Y-12229D01*
X27343Y-11886D01*
X27319Y-11815D01*
X27339Y-11808D01*
X27508Y-11639D01*
X27599Y-11419D01*
X27599Y-15181D01*
X27593Y-15166D01*
X27593Y-14391D01*
X27593Y-13391D01*
X27593Y-12391D01*
X27582Y-12156D01*
X27513Y-11990D01*
X27414Y-11957D01*
X27071Y-12300D01*
X27414Y-12643D01*
X27513Y-12610D01*
X27593Y-12391D01*
X27593Y-13391D01*
X27582Y-13156D01*
X27513Y-12990D01*
X27414Y-12957D01*
X27343Y-13028D01*
X27343Y-12886D01*
X27314Y-12800D01*
X27343Y-12714D01*
X27000Y-12371D01*
X26929Y-12442D01*
X26929Y-12300D01*
X26586Y-11957D01*
X26487Y-11990D01*
X26407Y-12209D01*
X26418Y-12444D01*
X26487Y-12610D01*
X26586Y-12643D01*
X26929Y-12300D01*
X26929Y-12442D01*
X26657Y-12714D01*
X26685Y-12800D01*
X26657Y-12886D01*
X27000Y-13229D01*
X27343Y-12886D01*
X27343Y-13028D01*
X27071Y-13300D01*
X27414Y-13643D01*
X27513Y-13610D01*
X27593Y-13391D01*
X27593Y-14391D01*
X27582Y-14156D01*
X27513Y-13990D01*
X27414Y-13957D01*
X27343Y-14028D01*
X27343Y-13886D01*
X27314Y-13800D01*
X27343Y-13714D01*
X27000Y-13371D01*
X26929Y-13442D01*
X26929Y-13300D01*
X26586Y-12957D01*
X26487Y-12990D01*
X26407Y-13209D01*
X26418Y-13444D01*
X26487Y-13610D01*
X26586Y-13643D01*
X26929Y-13300D01*
X26929Y-13442D01*
X26657Y-13714D01*
X26685Y-13800D01*
X26657Y-13886D01*
X27000Y-14229D01*
X27343Y-13886D01*
X27343Y-14028D01*
X27071Y-14300D01*
X27414Y-14643D01*
X27513Y-14610D01*
X27593Y-14391D01*
X27593Y-15166D01*
X27508Y-14961D01*
X27339Y-14792D01*
X27319Y-14784D01*
X27343Y-14714D01*
X27000Y-14371D01*
X26929Y-14442D01*
X26929Y-14300D01*
X26586Y-13957D01*
X26487Y-13990D01*
X26407Y-14209D01*
X26418Y-14444D01*
X26487Y-14610D01*
X26586Y-14643D01*
X26929Y-14300D01*
X26929Y-14442D01*
X26657Y-14714D01*
X26680Y-14784D01*
X26661Y-14792D01*
X26492Y-14961D01*
X26471Y-15010D01*
X21550Y-15010D01*
X21550Y-10062D01*
X21550Y-09838D01*
X21549Y-09601D01*
X21511Y-09509D01*
X21441Y-09439D01*
X21350Y-09401D01*
X21251Y-09401D01*
X21012Y-09400D01*
X20950Y-09462D01*
X20950Y-09900D01*
X21488Y-09900D01*
X21550Y-09838D01*
X21550Y-10062D01*
X21488Y-10000D01*
X20950Y-10000D01*
X20950Y-10438D01*
X21012Y-10500D01*
X21251Y-10499D01*
X21350Y-10499D01*
X21441Y-10461D01*
X21511Y-10391D01*
X21549Y-10299D01*
X21550Y-10062D01*
X21550Y-15010D01*
X21400Y-15010D01*
X21330Y-15023D01*
X21330Y-14462D01*
X21292Y-14370D01*
X21283Y-14361D01*
X21283Y-13166D01*
X21349Y-13101D01*
X21430Y-12906D01*
X21430Y-12695D01*
X21349Y-12500D01*
X21201Y-12351D01*
X21190Y-12346D01*
X21190Y-11799D01*
X21349Y-11799D01*
X21441Y-11761D01*
X21511Y-11691D01*
X21549Y-11600D01*
X21549Y-11501D01*
X21549Y-10901D01*
X21511Y-10809D01*
X21441Y-10739D01*
X21350Y-10701D01*
X21251Y-10701D01*
X20850Y-10701D01*
X20850Y-10438D01*
X20850Y-10000D01*
X20850Y-09900D01*
X20850Y-09462D01*
X20788Y-09400D01*
X20549Y-09401D01*
X20450Y-09401D01*
X20359Y-09439D01*
X20289Y-09509D01*
X20251Y-09601D01*
X20250Y-09838D01*
X20312Y-09900D01*
X20850Y-09900D01*
X20850Y-10000D01*
X20312Y-10000D01*
X20250Y-10062D01*
X20251Y-10299D01*
X20289Y-10391D01*
X20359Y-10461D01*
X20450Y-10499D01*
X20549Y-10499D01*
X20788Y-10500D01*
X20850Y-10438D01*
X20850Y-10701D01*
X20451Y-10701D01*
X20359Y-10739D01*
X20289Y-10809D01*
X20251Y-10900D01*
X20251Y-10999D01*
X20251Y-11599D01*
X20289Y-11691D01*
X20359Y-11761D01*
X20450Y-11799D01*
X20549Y-11799D01*
X20610Y-11799D01*
X20610Y-12346D01*
X20600Y-12351D01*
X20451Y-12499D01*
X20370Y-12694D01*
X20370Y-12905D01*
X20451Y-13100D01*
X20599Y-13249D01*
X20703Y-13292D01*
X20703Y-13493D01*
X19805Y-12595D01*
X19711Y-12532D01*
X19600Y-12510D01*
X19550Y-12510D01*
X19550Y-10062D01*
X19550Y-09838D01*
X19549Y-09601D01*
X19511Y-09509D01*
X19441Y-09439D01*
X19350Y-09401D01*
X19251Y-09401D01*
X19012Y-09400D01*
X18950Y-09462D01*
X18950Y-09900D01*
X19488Y-09900D01*
X19550Y-09838D01*
X19550Y-10062D01*
X19488Y-10000D01*
X18950Y-10000D01*
X18950Y-10438D01*
X19012Y-10500D01*
X19251Y-10499D01*
X19350Y-10499D01*
X19441Y-10461D01*
X19511Y-10391D01*
X19549Y-10299D01*
X19550Y-10062D01*
X19550Y-12510D01*
X19353Y-12510D01*
X19349Y-12500D01*
X19201Y-12351D01*
X19190Y-12346D01*
X19190Y-11799D01*
X19349Y-11799D01*
X19441Y-11761D01*
X19511Y-11691D01*
X19549Y-11600D01*
X19549Y-11501D01*
X19549Y-10901D01*
X19511Y-10809D01*
X19441Y-10739D01*
X19350Y-10701D01*
X19251Y-10701D01*
X18850Y-10701D01*
X18850Y-10438D01*
X18850Y-10000D01*
X18850Y-09900D01*
X18850Y-09462D01*
X18788Y-09400D01*
X18549Y-09401D01*
X18450Y-09401D01*
X18359Y-09439D01*
X18289Y-09509D01*
X18251Y-09601D01*
X18250Y-09838D01*
X18312Y-09900D01*
X18850Y-09900D01*
X18850Y-10000D01*
X18312Y-10000D01*
X18250Y-10062D01*
X18251Y-10299D01*
X18289Y-10391D01*
X18359Y-10461D01*
X18450Y-10499D01*
X18549Y-10499D01*
X18788Y-10500D01*
X18850Y-10438D01*
X18850Y-10701D01*
X18451Y-10701D01*
X18359Y-10739D01*
X18289Y-10809D01*
X18251Y-10900D01*
X18251Y-10999D01*
X18251Y-11599D01*
X18289Y-11691D01*
X18359Y-11761D01*
X18450Y-11799D01*
X18549Y-11799D01*
X18610Y-11799D01*
X18610Y-12346D01*
X18600Y-12351D01*
X18451Y-12499D01*
X18370Y-12694D01*
X18370Y-12905D01*
X18451Y-13100D01*
X18599Y-13249D01*
X18794Y-13330D01*
X19005Y-13330D01*
X19200Y-13249D01*
X19349Y-13101D01*
X19353Y-13090D01*
X19480Y-13090D01*
X20150Y-13760D01*
X19750Y-13760D01*
X19733Y-13760D01*
X18270Y-13760D01*
X17905Y-13395D01*
X17811Y-13332D01*
X17700Y-13310D01*
X10770Y-13310D01*
X09349Y-11888D01*
X09349Y-11301D01*
X09311Y-11209D01*
X09241Y-11139D01*
X09150Y-11101D01*
X09051Y-11101D01*
X08251Y-11101D01*
X08159Y-11139D01*
X08089Y-11209D01*
X08051Y-11300D01*
X08051Y-11399D01*
X08051Y-11999D01*
X08089Y-12091D01*
X08159Y-12161D01*
X08250Y-12199D01*
X08349Y-12199D01*
X08838Y-12199D01*
X09040Y-12401D01*
X08251Y-12401D01*
X08159Y-12439D01*
X08089Y-12509D01*
X08051Y-12600D01*
X08051Y-12699D01*
X08051Y-13299D01*
X08089Y-13391D01*
X08159Y-13461D01*
X08250Y-13499D01*
X08349Y-13499D01*
X08410Y-13499D01*
X08410Y-16001D01*
X08251Y-16001D01*
X08159Y-16039D01*
X08089Y-16109D01*
X08051Y-16200D01*
X08051Y-16299D01*
X08051Y-16899D01*
X08089Y-16991D01*
X08159Y-17061D01*
X08250Y-17099D01*
X08349Y-17099D01*
X08839Y-17099D01*
X09041Y-17301D01*
X08251Y-17301D01*
X08159Y-17339D01*
X08089Y-17409D01*
X08051Y-17500D01*
X08051Y-17599D01*
X08051Y-18199D01*
X08089Y-18291D01*
X08159Y-18361D01*
X08250Y-18399D01*
X08349Y-18399D01*
X08410Y-18399D01*
X08410Y-18576D01*
X08376Y-18576D01*
X08284Y-18614D01*
X08214Y-18684D01*
X08176Y-18775D01*
X08176Y-18874D01*
X08176Y-19424D01*
X08211Y-19510D01*
X07599Y-19510D01*
X07599Y-16419D01*
X07599Y-16181D01*
X07508Y-15961D01*
X07347Y-15800D01*
X07508Y-15639D01*
X07599Y-15419D01*
X07599Y-15181D01*
X07599Y-12419D01*
X07599Y-12181D01*
X07508Y-11961D01*
X07347Y-11800D01*
X07508Y-11639D01*
X07599Y-11419D01*
X07599Y-11181D01*
X07593Y-11166D01*
X07593Y-10391D01*
X07582Y-10156D01*
X07513Y-09990D01*
X07414Y-09957D01*
X07343Y-10028D01*
X07343Y-09886D01*
X07310Y-09787D01*
X07091Y-09707D01*
X06856Y-09718D01*
X06690Y-09787D01*
X06657Y-09886D01*
X07000Y-10229D01*
X07343Y-09886D01*
X07343Y-10028D01*
X07071Y-10300D01*
X07414Y-10643D01*
X07513Y-10610D01*
X07593Y-10391D01*
X07593Y-11166D01*
X07508Y-10961D01*
X07339Y-10792D01*
X07319Y-10784D01*
X07343Y-10714D01*
X07000Y-10371D01*
X06929Y-10442D01*
X06929Y-10300D01*
X06586Y-09957D01*
X06487Y-09990D01*
X06407Y-10209D01*
X06418Y-10444D01*
X06487Y-10610D01*
X06586Y-10643D01*
X06929Y-10300D01*
X06929Y-10442D01*
X06657Y-10714D01*
X06680Y-10784D01*
X06661Y-10792D01*
X06492Y-10961D01*
X06401Y-11181D01*
X06401Y-11419D01*
X06492Y-11639D01*
X06653Y-11800D01*
X06492Y-11961D01*
X06401Y-12181D01*
X06401Y-12419D01*
X06492Y-12639D01*
X06661Y-12808D01*
X06680Y-12815D01*
X06657Y-12886D01*
X07000Y-13229D01*
X07343Y-12886D01*
X07319Y-12815D01*
X07339Y-12808D01*
X07508Y-12639D01*
X07599Y-12419D01*
X07599Y-15181D01*
X07593Y-15166D01*
X07593Y-14391D01*
X07593Y-13391D01*
X07582Y-13156D01*
X07513Y-12990D01*
X07414Y-12957D01*
X07071Y-13300D01*
X07414Y-13643D01*
X07513Y-13610D01*
X07593Y-13391D01*
X07593Y-14391D01*
X07582Y-14156D01*
X07513Y-13990D01*
X07414Y-13957D01*
X07343Y-14028D01*
X07343Y-13886D01*
X07314Y-13800D01*
X07343Y-13714D01*
X07000Y-13371D01*
X06929Y-13442D01*
X06929Y-13300D01*
X06586Y-12957D01*
X06487Y-12990D01*
X06407Y-13209D01*
X06418Y-13444D01*
X06487Y-13610D01*
X06586Y-13643D01*
X06929Y-13300D01*
X06929Y-13442D01*
X06657Y-13714D01*
X06685Y-13800D01*
X06657Y-13886D01*
X07000Y-14229D01*
X07343Y-13886D01*
X07343Y-14028D01*
X07071Y-14300D01*
X07414Y-14643D01*
X07513Y-14610D01*
X07593Y-14391D01*
X07593Y-15166D01*
X07508Y-14961D01*
X07339Y-14792D01*
X07319Y-14784D01*
X07343Y-14714D01*
X07000Y-14371D01*
X06929Y-14442D01*
X06929Y-14300D01*
X06586Y-13957D01*
X06487Y-13990D01*
X06407Y-14209D01*
X06418Y-14444D01*
X06487Y-14610D01*
X06586Y-14643D01*
X06929Y-14300D01*
X06929Y-14442D01*
X06657Y-14714D01*
X06680Y-14784D01*
X06661Y-14792D01*
X06492Y-14961D01*
X06401Y-15181D01*
X06401Y-15419D01*
X06492Y-15639D01*
X06653Y-15800D01*
X06492Y-15961D01*
X06401Y-16181D01*
X06401Y-16419D01*
X06492Y-16639D01*
X06661Y-16808D01*
X06680Y-16815D01*
X06657Y-16886D01*
X07000Y-17229D01*
X07343Y-16886D01*
X07319Y-16815D01*
X07339Y-16808D01*
X07508Y-16639D01*
X07599Y-16419D01*
X07599Y-19510D01*
X07593Y-19510D01*
X07593Y-18891D01*
X07593Y-17391D01*
X07582Y-17156D01*
X07513Y-16990D01*
X07414Y-16957D01*
X07071Y-17300D01*
X07414Y-17643D01*
X07513Y-17610D01*
X07593Y-17391D01*
X07593Y-18891D01*
X07582Y-18656D01*
X07513Y-18490D01*
X07414Y-18457D01*
X07343Y-18528D01*
X07343Y-18386D01*
X07343Y-17714D01*
X07000Y-17371D01*
X06929Y-17442D01*
X06929Y-17300D01*
X06586Y-16957D01*
X06487Y-16990D01*
X06407Y-17209D01*
X06418Y-17444D01*
X06487Y-17610D01*
X06586Y-17643D01*
X06929Y-17300D01*
X06929Y-17442D01*
X06657Y-17714D01*
X06690Y-17813D01*
X06909Y-17893D01*
X07144Y-17882D01*
X07310Y-17813D01*
X07343Y-17714D01*
X07343Y-18386D01*
X07310Y-18287D01*
X07091Y-18207D01*
X06856Y-18218D01*
X06690Y-18287D01*
X06657Y-18386D01*
X07000Y-18729D01*
X07343Y-18386D01*
X07343Y-18528D01*
X07071Y-18800D01*
X07414Y-19143D01*
X07513Y-19110D01*
X07593Y-18891D01*
X07593Y-19510D01*
X07528Y-19510D01*
X07508Y-19461D01*
X07339Y-19292D01*
X07319Y-19284D01*
X07343Y-19214D01*
X07000Y-18871D01*
X06929Y-18942D01*
X06929Y-18800D01*
X06586Y-18457D01*
X06487Y-18490D01*
X06407Y-18709D01*
X06418Y-18944D01*
X06487Y-19110D01*
X06586Y-19143D01*
X06929Y-18800D01*
X06929Y-18942D01*
X06657Y-19214D01*
X06680Y-19284D01*
X06661Y-19292D01*
X06492Y-19461D01*
X06401Y-19681D01*
X06401Y-19919D01*
X06492Y-20139D01*
X06653Y-20300D01*
X06492Y-20461D01*
X06401Y-20681D01*
X06401Y-20919D01*
X06492Y-21139D01*
X06661Y-21308D01*
X06680Y-21315D01*
X06657Y-21386D01*
X07000Y-21729D01*
X07343Y-21386D01*
X07319Y-21315D01*
X07339Y-21308D01*
X07508Y-21139D01*
X07599Y-20919D01*
X07599Y-20681D01*
X07508Y-20461D01*
X07347Y-20300D01*
X07508Y-20139D01*
X07528Y-20090D01*
X10200Y-20090D01*
X10311Y-20068D01*
X10405Y-20005D01*
X12858Y-17552D01*
X17358Y-17552D01*
X17358Y-17715D01*
X17366Y-17734D01*
X17358Y-17754D01*
X17358Y-17853D01*
X17358Y-18029D01*
X17396Y-18121D01*
X17466Y-18191D01*
X17557Y-18229D01*
X17656Y-18229D01*
X18061Y-18229D01*
X12780Y-23510D01*
X07593Y-23510D01*
X07593Y-22891D01*
X07593Y-21891D01*
X07582Y-21656D01*
X07513Y-21490D01*
X07414Y-21457D01*
X07071Y-21800D01*
X07414Y-22143D01*
X07513Y-22110D01*
X07593Y-21891D01*
X07593Y-22891D01*
X07582Y-22656D01*
X07513Y-22490D01*
X07414Y-22457D01*
X07343Y-22528D01*
X07343Y-22386D01*
X07314Y-22300D01*
X07343Y-22214D01*
X07000Y-21871D01*
X06929Y-21942D01*
X06929Y-21800D01*
X06586Y-21457D01*
X06487Y-21490D01*
X06407Y-21709D01*
X06418Y-21944D01*
X06487Y-22110D01*
X06586Y-22143D01*
X06929Y-21800D01*
X06929Y-21942D01*
X06657Y-22214D01*
X06685Y-22300D01*
X06657Y-22386D01*
X07000Y-22729D01*
X07343Y-22386D01*
X07343Y-22528D01*
X07071Y-22800D01*
X07414Y-23143D01*
X07513Y-23110D01*
X07593Y-22891D01*
X07593Y-23510D01*
X07528Y-23510D01*
X07508Y-23461D01*
X07339Y-23292D01*
X07319Y-23284D01*
X07343Y-23214D01*
X07000Y-22871D01*
X06929Y-22942D01*
X06929Y-22800D01*
X06586Y-22457D01*
X06487Y-22490D01*
X06407Y-22709D01*
X06418Y-22944D01*
X06487Y-23110D01*
X06586Y-23143D01*
X06929Y-22800D01*
X06929Y-22942D01*
X06657Y-23214D01*
X06680Y-23284D01*
X06661Y-23292D01*
X06492Y-23461D01*
X06401Y-23681D01*
X06401Y-23919D01*
X06492Y-24139D01*
X06653Y-24300D01*
X06492Y-24461D01*
X06401Y-24681D01*
X06401Y-24919D01*
X06492Y-25139D01*
X06661Y-25308D01*
X06680Y-25315D01*
X06657Y-25386D01*
X07000Y-25729D01*
X07343Y-25386D01*
X07319Y-25315D01*
X07339Y-25308D01*
X07508Y-25139D01*
X07599Y-24919D01*
X07599Y-24681D01*
X07508Y-24461D01*
X07347Y-24300D01*
X07508Y-24139D01*
X07528Y-24090D01*
X12900Y-24090D01*
X13011Y-24068D01*
X13105Y-24005D01*
X18453Y-18657D01*
X18453Y-19112D01*
X18491Y-19204D01*
X18561Y-19274D01*
X18652Y-19312D01*
X18751Y-19312D01*
X18927Y-19312D01*
X18944Y-19304D01*
X18962Y-19312D01*
X19061Y-19312D01*
X19237Y-19312D01*
X19259Y-19302D01*
X19282Y-19312D01*
X19381Y-19312D01*
X19557Y-19312D01*
X19574Y-19304D01*
X19592Y-19312D01*
X19625Y-19312D01*
X19686Y-19251D01*
X19686Y-19237D01*
X19719Y-19204D01*
X19735Y-19165D01*
X19751Y-19204D01*
X19760Y-19213D01*
X19760Y-19450D01*
X19782Y-19561D01*
X19845Y-19655D01*
X19851Y-19661D01*
X19800Y-19712D01*
X19800Y-20200D01*
X19800Y-20250D01*
X19800Y-20350D01*
X19800Y-20400D01*
X19800Y-20888D01*
X19862Y-20950D01*
X20099Y-20949D01*
X20110Y-20944D01*
X20110Y-21650D01*
X20111Y-21656D01*
X20099Y-21651D01*
X19862Y-21650D01*
X19800Y-21712D01*
X19800Y-22250D01*
X20238Y-22250D01*
X20300Y-22188D01*
X20299Y-21959D01*
X20501Y-22161D01*
X20501Y-22749D01*
X20539Y-22841D01*
X20609Y-22911D01*
X20700Y-22949D01*
X20799Y-22949D01*
X21399Y-22949D01*
X21491Y-22911D01*
X21561Y-22841D01*
X21599Y-22750D01*
X21599Y-22651D01*
X21599Y-21851D01*
X21561Y-21759D01*
X21491Y-21689D01*
X21400Y-21651D01*
X21301Y-21651D01*
X20811Y-21651D01*
X20690Y-21530D01*
X20690Y-20944D01*
X20700Y-20949D01*
X20799Y-20949D01*
X21399Y-20949D01*
X21491Y-20911D01*
X21561Y-20841D01*
X21599Y-20750D01*
X21599Y-20651D01*
X21599Y-19851D01*
X21561Y-19759D01*
X21491Y-19689D01*
X21400Y-19651D01*
X21301Y-19651D01*
X20970Y-19651D01*
X20970Y-19312D01*
X21137Y-19312D01*
X21229Y-19274D01*
X21246Y-19256D01*
X21902Y-19912D01*
X21876Y-19975D01*
X21876Y-20074D01*
X21876Y-20624D01*
X21914Y-20716D01*
X21984Y-20786D01*
X22075Y-20824D01*
X22174Y-20824D01*
X22724Y-20824D01*
X22816Y-20786D01*
X22886Y-20716D01*
X22900Y-20682D01*
X22914Y-20716D01*
X22984Y-20786D01*
X23075Y-20824D01*
X23174Y-20824D01*
X23724Y-20824D01*
X23816Y-20786D01*
X23886Y-20716D01*
X23924Y-20625D01*
X23924Y-20526D01*
X23924Y-19976D01*
X23886Y-19884D01*
X23816Y-19814D01*
X23782Y-19799D01*
X23816Y-19786D01*
X23886Y-19716D01*
X23924Y-19625D01*
X23924Y-19526D01*
X23924Y-18976D01*
X23886Y-18884D01*
X23816Y-18814D01*
X23725Y-18776D01*
X23690Y-18776D01*
X23690Y-18100D01*
X23668Y-17989D01*
X23605Y-17895D01*
X23085Y-17375D01*
X22991Y-17312D01*
X22880Y-17290D01*
X22422Y-17290D01*
X22422Y-17123D01*
X22412Y-17100D01*
X22422Y-17078D01*
X22422Y-16979D01*
X22422Y-16803D01*
X22414Y-16785D01*
X22422Y-16768D01*
X22422Y-16669D01*
X22422Y-16493D01*
X22414Y-16475D01*
X22422Y-16458D01*
X22422Y-16359D01*
X22422Y-16183D01*
X22412Y-16160D01*
X22422Y-16138D01*
X22422Y-16039D01*
X22422Y-15863D01*
X22414Y-15845D01*
X22422Y-15828D01*
X22422Y-15729D01*
X22422Y-15590D01*
X26471Y-15590D01*
X26492Y-15639D01*
X26653Y-15800D01*
X26492Y-15961D01*
X26401Y-16181D01*
X26401Y-16419D01*
X26492Y-16639D01*
X26661Y-16808D01*
X26680Y-16815D01*
X26657Y-16886D01*
X27000Y-17229D01*
X27343Y-16886D01*
X27319Y-16815D01*
X27339Y-16808D01*
X27508Y-16639D01*
X27599Y-16419D01*
X27599Y-20181D01*
X27593Y-20166D01*
X27593Y-19391D01*
X27593Y-18391D01*
X27593Y-17391D01*
X27582Y-17156D01*
X27513Y-16990D01*
X27414Y-16957D01*
X27071Y-17300D01*
X27414Y-17643D01*
X27513Y-17610D01*
X27593Y-17391D01*
X27593Y-18391D01*
X27582Y-18156D01*
X27513Y-17990D01*
X27414Y-17957D01*
X27343Y-18028D01*
X27343Y-17886D01*
X27314Y-17800D01*
X27343Y-17714D01*
X27000Y-17371D01*
X26929Y-17442D01*
X26929Y-17300D01*
X26586Y-16957D01*
X26487Y-16990D01*
X26407Y-17209D01*
X26418Y-17444D01*
X26487Y-17610D01*
X26586Y-17643D01*
X26929Y-17300D01*
X26929Y-17442D01*
X26657Y-17714D01*
X26685Y-17800D01*
X26657Y-17886D01*
X27000Y-18229D01*
X27343Y-17886D01*
X27343Y-18028D01*
X27071Y-18300D01*
X27414Y-18643D01*
X27513Y-18610D01*
X27593Y-18391D01*
X27593Y-19391D01*
X27582Y-19156D01*
X27513Y-18990D01*
X27414Y-18957D01*
X27343Y-19028D01*
X27343Y-18886D01*
X27314Y-18800D01*
X27343Y-18714D01*
X27000Y-18371D01*
X26929Y-18442D01*
X26929Y-18300D01*
X26586Y-17957D01*
X26487Y-17990D01*
X26407Y-18209D01*
X26418Y-18444D01*
X26487Y-18610D01*
X26586Y-18643D01*
X26929Y-18300D01*
X26929Y-18442D01*
X26657Y-18714D01*
X26685Y-18800D01*
X26657Y-18886D01*
X27000Y-19229D01*
X27343Y-18886D01*
X27343Y-19028D01*
X27071Y-19300D01*
X27414Y-19643D01*
X27513Y-19610D01*
X27593Y-19391D01*
X27593Y-20166D01*
X27508Y-19961D01*
X27339Y-19792D01*
X27319Y-19784D01*
X27343Y-19714D01*
X27000Y-19371D01*
X26929Y-19442D01*
X26929Y-19300D01*
X26586Y-18957D01*
X26487Y-18990D01*
X26407Y-19209D01*
X26418Y-19444D01*
X26487Y-19610D01*
X26586Y-19643D01*
X26929Y-19300D01*
X26929Y-19442D01*
X26657Y-19714D01*
X26680Y-19784D01*
X26661Y-19792D01*
X26492Y-19961D01*
X26401Y-20181D01*
X26401Y-20419D01*
X26492Y-20639D01*
X26653Y-20800D01*
X26492Y-20961D01*
X26401Y-21181D01*
X26401Y-21419D01*
X26492Y-21639D01*
X26661Y-21808D01*
X26881Y-21899D01*
X27119Y-21899D01*
X27339Y-21808D01*
X27508Y-21639D01*
X27599Y-21419D01*
X27599Y-22630D01*
X26450Y-23779D01*
X26450Y-25779D01*
X25479Y-26750D01*
X20300Y-26750D01*
X20300Y-22412D01*
X20238Y-22350D01*
X19800Y-22350D01*
X19800Y-22888D01*
X19862Y-22950D01*
X20099Y-22949D01*
X20191Y-22911D01*
X20261Y-22841D01*
X20299Y-22750D01*
X20299Y-22651D01*
X20300Y-22412D01*
X20300Y-26750D01*
X19700Y-26750D01*
X19700Y-22888D01*
X19700Y-22350D01*
X19700Y-22250D01*
X19700Y-21712D01*
X19700Y-20888D01*
X19700Y-20350D01*
X19700Y-20250D01*
X19700Y-19712D01*
X19638Y-19650D01*
X19401Y-19651D01*
X19309Y-19689D01*
X19239Y-19759D01*
X19201Y-19850D01*
X19201Y-19949D01*
X19200Y-20188D01*
X19262Y-20250D01*
X19700Y-20250D01*
X19700Y-20350D01*
X19262Y-20350D01*
X19200Y-20412D01*
X19201Y-20651D01*
X19201Y-20750D01*
X19239Y-20841D01*
X19309Y-20911D01*
X19401Y-20949D01*
X19638Y-20950D01*
X19700Y-20888D01*
X19700Y-21712D01*
X19638Y-21650D01*
X19401Y-21651D01*
X19309Y-21689D01*
X19239Y-21759D01*
X19201Y-21850D01*
X19201Y-21949D01*
X19200Y-22188D01*
X19262Y-22250D01*
X19700Y-22250D01*
X19700Y-22350D01*
X19262Y-22350D01*
X19200Y-22412D01*
X19201Y-22651D01*
X19201Y-22750D01*
X19239Y-22841D01*
X19309Y-22911D01*
X19401Y-22949D01*
X19638Y-22950D01*
X19700Y-22888D01*
X19700Y-26750D01*
X07593Y-26750D01*
X07593Y-25891D01*
X07582Y-25656D01*
X07513Y-25490D01*
X07414Y-25457D01*
X07071Y-25800D01*
X07414Y-26143D01*
X07513Y-26110D01*
X07593Y-25891D01*
X07593Y-26750D01*
X07343Y-26750D01*
X07343Y-26214D01*
X07000Y-25871D01*
X06929Y-25942D01*
X06929Y-25800D01*
X06586Y-25457D01*
X06487Y-25490D01*
X06407Y-25709D01*
X06418Y-25944D01*
X06487Y-26110D01*
X06586Y-26143D01*
X06929Y-25800D01*
X06929Y-25942D01*
X06657Y-26214D01*
X06690Y-26313D01*
X06909Y-26393D01*
X07144Y-26382D01*
X07310Y-26313D01*
X07343Y-26214D01*
X07343Y-26750D01*
X06521Y-26750D01*
X06050Y-26279D01*
X06050Y-09821D01*
X06521Y-09350D01*
X27479Y-09350D01*
X27950Y-09821D01*
X27950Y-22279D01*
X27950Y-22279D01*
G37*
G54D21*
X27950Y-22279D02*
X27599Y-22630D01*
X27599Y-21419D01*
X27599Y-21181D01*
X27508Y-20961D01*
X27347Y-20800D01*
X27508Y-20639D01*
X27599Y-20419D01*
X27599Y-20181D01*
X27599Y-16419D01*
X27599Y-16181D01*
X27508Y-15961D01*
X27347Y-15800D01*
X27508Y-15639D01*
X27599Y-15419D01*
X27599Y-15181D01*
X27599Y-11419D01*
X27599Y-11181D01*
X27508Y-10961D01*
X27347Y-10800D01*
X27508Y-10639D01*
X27599Y-10419D01*
X27599Y-10181D01*
X27508Y-09961D01*
X27339Y-09792D01*
X27119Y-09701D01*
X26881Y-09701D01*
X26661Y-09792D01*
X26492Y-09961D01*
X26401Y-10181D01*
X26401Y-10419D01*
X26492Y-10639D01*
X26653Y-10800D01*
X26492Y-10961D01*
X26401Y-11181D01*
X26401Y-11419D01*
X26492Y-11639D01*
X26661Y-11808D01*
X26680Y-11815D01*
X26657Y-11886D01*
X27000Y-12229D01*
X27343Y-11886D01*
X27319Y-11815D01*
X27339Y-11808D01*
X27508Y-11639D01*
X27599Y-11419D01*
X27599Y-15181D01*
X27593Y-15166D01*
X27593Y-14391D01*
X27593Y-13391D01*
X27593Y-12391D01*
X27582Y-12156D01*
X27513Y-11990D01*
X27414Y-11957D01*
X27071Y-12300D01*
X27414Y-12643D01*
X27513Y-12610D01*
X27593Y-12391D01*
X27593Y-13391D01*
X27582Y-13156D01*
X27513Y-12990D01*
X27414Y-12957D01*
X27343Y-13028D01*
X27343Y-12886D01*
X27314Y-12800D01*
X27343Y-12714D01*
X27000Y-12371D01*
X26929Y-12442D01*
X26929Y-12300D01*
X26586Y-11957D01*
X26487Y-11990D01*
X26407Y-12209D01*
X26418Y-12444D01*
X26487Y-12610D01*
X26586Y-12643D01*
X26929Y-12300D01*
X26929Y-12442D01*
X26657Y-12714D01*
X26685Y-12800D01*
X26657Y-12886D01*
X27000Y-13229D01*
X27343Y-12886D01*
X27343Y-13028D01*
X27071Y-13300D01*
X27414Y-13643D01*
X27513Y-13610D01*
X27593Y-13391D01*
X27593Y-14391D01*
X27582Y-14156D01*
X27513Y-13990D01*
X27414Y-13957D01*
X27343Y-14028D01*
X27343Y-13886D01*
X27314Y-13800D01*
X27343Y-13714D01*
X27000Y-13371D01*
X26929Y-13442D01*
X26929Y-13300D01*
X26586Y-12957D01*
X26487Y-12990D01*
X26407Y-13209D01*
X26418Y-13444D01*
X26487Y-13610D01*
X26586Y-13643D01*
X26929Y-13300D01*
X26929Y-13442D01*
X26657Y-13714D01*
X26685Y-13800D01*
X26657Y-13886D01*
X27000Y-14229D01*
X27343Y-13886D01*
X27343Y-14028D01*
X27071Y-14300D01*
X27414Y-14643D01*
X27513Y-14610D01*
X27593Y-14391D01*
X27593Y-15166D01*
X27508Y-14961D01*
X27339Y-14792D01*
X27319Y-14784D01*
X27343Y-14714D01*
X27000Y-14371D01*
X26929Y-14442D01*
X26929Y-14300D01*
X26586Y-13957D01*
X26487Y-13990D01*
X26407Y-14209D01*
X26418Y-14444D01*
X26487Y-14610D01*
X26586Y-14643D01*
X26929Y-14300D01*
X26929Y-14442D01*
X26657Y-14714D01*
X26680Y-14784D01*
X26661Y-14792D01*
X26492Y-14961D01*
X26471Y-15010D01*
X21550Y-15010D01*
X21550Y-10062D01*
X21550Y-09838D01*
X21549Y-09601D01*
X21511Y-09509D01*
X21441Y-09439D01*
X21350Y-09401D01*
X21251Y-09401D01*
X21012Y-09400D01*
X20950Y-09462D01*
X20950Y-09900D01*
X21488Y-09900D01*
X21550Y-09838D01*
X21550Y-10062D01*
X21488Y-10000D01*
X20950Y-10000D01*
X20950Y-10438D01*
X21012Y-10500D01*
X21251Y-10499D01*
X21350Y-10499D01*
X21441Y-10461D01*
X21511Y-10391D01*
X21549Y-10299D01*
X21550Y-10062D01*
X21550Y-15010D01*
X21400Y-15010D01*
X21330Y-15023D01*
X21330Y-14462D01*
X21292Y-14370D01*
X21283Y-14361D01*
X21283Y-13166D01*
X21349Y-13101D01*
X21430Y-12906D01*
X21430Y-12695D01*
X21349Y-12500D01*
X21201Y-12351D01*
X21190Y-12346D01*
X21190Y-11799D01*
X21349Y-11799D01*
X21441Y-11761D01*
X21511Y-11691D01*
X21549Y-11600D01*
X21549Y-11501D01*
X21549Y-10901D01*
X21511Y-10809D01*
X21441Y-10739D01*
X21350Y-10701D01*
X21251Y-10701D01*
X20850Y-10701D01*
X20850Y-10438D01*
X20850Y-10000D01*
X20850Y-09900D01*
X20850Y-09462D01*
X20788Y-09400D01*
X20549Y-09401D01*
X20450Y-09401D01*
X20359Y-09439D01*
X20289Y-09509D01*
X20251Y-09601D01*
X20250Y-09838D01*
X20312Y-09900D01*
X20850Y-09900D01*
X20850Y-10000D01*
X20312Y-10000D01*
X20250Y-10062D01*
X20251Y-10299D01*
X20289Y-10391D01*
X20359Y-10461D01*
X20450Y-10499D01*
X20549Y-10499D01*
X20788Y-10500D01*
X20850Y-10438D01*
X20850Y-10701D01*
X20451Y-10701D01*
X20359Y-10739D01*
X20289Y-10809D01*
X20251Y-10900D01*
X20251Y-10999D01*
X20251Y-11599D01*
X20289Y-11691D01*
X20359Y-11761D01*
X20450Y-11799D01*
X20549Y-11799D01*
X20610Y-11799D01*
X20610Y-12346D01*
X20600Y-12351D01*
X20451Y-12499D01*
X20370Y-12694D01*
X20370Y-12905D01*
X20451Y-13100D01*
X20599Y-13249D01*
X20703Y-13292D01*
X20703Y-13493D01*
X19805Y-12595D01*
X19711Y-12532D01*
X19600Y-12510D01*
X19550Y-12510D01*
X19550Y-10062D01*
X19550Y-09838D01*
X19549Y-09601D01*
X19511Y-09509D01*
X19441Y-09439D01*
X19350Y-09401D01*
X19251Y-09401D01*
X19012Y-09400D01*
X18950Y-09462D01*
X18950Y-09900D01*
X19488Y-09900D01*
X19550Y-09838D01*
X19550Y-10062D01*
X19488Y-10000D01*
X18950Y-10000D01*
X18950Y-10438D01*
X19012Y-10500D01*
X19251Y-10499D01*
X19350Y-10499D01*
X19441Y-10461D01*
X19511Y-10391D01*
X19549Y-10299D01*
X19550Y-10062D01*
X19550Y-12510D01*
X19353Y-12510D01*
X19349Y-12500D01*
X19201Y-12351D01*
X19190Y-12346D01*
X19190Y-11799D01*
X19349Y-11799D01*
X19441Y-11761D01*
X19511Y-11691D01*
X19549Y-11600D01*
X19549Y-11501D01*
X19549Y-10901D01*
X19511Y-10809D01*
X19441Y-10739D01*
X19350Y-10701D01*
X19251Y-10701D01*
X18850Y-10701D01*
X18850Y-10438D01*
X18850Y-10000D01*
X18850Y-09900D01*
X18850Y-09462D01*
X18788Y-09400D01*
X18549Y-09401D01*
X18450Y-09401D01*
X18359Y-09439D01*
X18289Y-09509D01*
X18251Y-09601D01*
X18250Y-09838D01*
X18312Y-09900D01*
X18850Y-09900D01*
X18850Y-10000D01*
X18312Y-10000D01*
X18250Y-10062D01*
X18251Y-10299D01*
X18289Y-10391D01*
X18359Y-10461D01*
X18450Y-10499D01*
X18549Y-10499D01*
X18788Y-10500D01*
X18850Y-10438D01*
X18850Y-10701D01*
X18451Y-10701D01*
X18359Y-10739D01*
X18289Y-10809D01*
X18251Y-10900D01*
X18251Y-10999D01*
X18251Y-11599D01*
X18289Y-11691D01*
X18359Y-11761D01*
X18450Y-11799D01*
X18549Y-11799D01*
X18610Y-11799D01*
X18610Y-12346D01*
X18600Y-12351D01*
X18451Y-12499D01*
X18370Y-12694D01*
X18370Y-12905D01*
X18451Y-13100D01*
X18599Y-13249D01*
X18794Y-13330D01*
X19005Y-13330D01*
X19200Y-13249D01*
X19349Y-13101D01*
X19353Y-13090D01*
X19480Y-13090D01*
X20150Y-13760D01*
X19750Y-13760D01*
X19733Y-13760D01*
X18270Y-13760D01*
X17905Y-13395D01*
X17811Y-13332D01*
X17700Y-13310D01*
X10770Y-13310D01*
X09349Y-11888D01*
X09349Y-11301D01*
X09311Y-11209D01*
X09241Y-11139D01*
X09150Y-11101D01*
X09051Y-11101D01*
X08251Y-11101D01*
X08159Y-11139D01*
X08089Y-11209D01*
X08051Y-11300D01*
X08051Y-11399D01*
X08051Y-11999D01*
X08089Y-12091D01*
X08159Y-12161D01*
X08250Y-12199D01*
X08349Y-12199D01*
X08838Y-12199D01*
X09040Y-12401D01*
X08251Y-12401D01*
X08159Y-12439D01*
X08089Y-12509D01*
X08051Y-12600D01*
X08051Y-12699D01*
X08051Y-13299D01*
X08089Y-13391D01*
X08159Y-13461D01*
X08250Y-13499D01*
X08349Y-13499D01*
X08410Y-13499D01*
X08410Y-16001D01*
X08251Y-16001D01*
X08159Y-16039D01*
X08089Y-16109D01*
X08051Y-16200D01*
X08051Y-16299D01*
X08051Y-16899D01*
X08089Y-16991D01*
X08159Y-17061D01*
X08250Y-17099D01*
X08349Y-17099D01*
X08839Y-17099D01*
X09041Y-17301D01*
X08251Y-17301D01*
X08159Y-17339D01*
X08089Y-17409D01*
X08051Y-17500D01*
X08051Y-17599D01*
X08051Y-18199D01*
X08089Y-18291D01*
X08159Y-18361D01*
X08250Y-18399D01*
X08349Y-18399D01*
X08410Y-18399D01*
X08410Y-18576D01*
X08376Y-18576D01*
X08284Y-18614D01*
X08214Y-18684D01*
X08176Y-18775D01*
X08176Y-18874D01*
X08176Y-19424D01*
X08211Y-19510D01*
X07599Y-19510D01*
X07599Y-16419D01*
X07599Y-16181D01*
X07508Y-15961D01*
X07347Y-15800D01*
X07508Y-15639D01*
X07599Y-15419D01*
X07599Y-15181D01*
X07599Y-12419D01*
X07599Y-12181D01*
X07508Y-11961D01*
X07347Y-11800D01*
X07508Y-11639D01*
X07599Y-11419D01*
X07599Y-11181D01*
X07593Y-11166D01*
X07593Y-10391D01*
X07582Y-10156D01*
X07513Y-09990D01*
X07414Y-09957D01*
X07343Y-10028D01*
X07343Y-09886D01*
X07310Y-09787D01*
X07091Y-09707D01*
X06856Y-09718D01*
X06690Y-09787D01*
X06657Y-09886D01*
X07000Y-10229D01*
X07343Y-09886D01*
X07343Y-10028D01*
X07071Y-10300D01*
X07414Y-10643D01*
X07513Y-10610D01*
X07593Y-10391D01*
X07593Y-11166D01*
X07508Y-10961D01*
X07339Y-10792D01*
X07319Y-10784D01*
X07343Y-10714D01*
X07000Y-10371D01*
X06929Y-10442D01*
X06929Y-10300D01*
X06586Y-09957D01*
X06487Y-09990D01*
X06407Y-10209D01*
X06418Y-10444D01*
X06487Y-10610D01*
X06586Y-10643D01*
X06929Y-10300D01*
X06929Y-10442D01*
X06657Y-10714D01*
X06680Y-10784D01*
X06661Y-10792D01*
X06492Y-10961D01*
X06401Y-11181D01*
X06401Y-11419D01*
X06492Y-11639D01*
X06653Y-11800D01*
X06492Y-11961D01*
X06401Y-12181D01*
X06401Y-12419D01*
X06492Y-12639D01*
X06661Y-12808D01*
X06680Y-12815D01*
X06657Y-12886D01*
X07000Y-13229D01*
X07343Y-12886D01*
X07319Y-12815D01*
X07339Y-12808D01*
X07508Y-12639D01*
X07599Y-12419D01*
X07599Y-15181D01*
X07593Y-15166D01*
X07593Y-14391D01*
X07593Y-13391D01*
X07582Y-13156D01*
X07513Y-12990D01*
X07414Y-12957D01*
X07071Y-13300D01*
X07414Y-13643D01*
X07513Y-13610D01*
X07593Y-13391D01*
X07593Y-14391D01*
X07582Y-14156D01*
X07513Y-13990D01*
X07414Y-13957D01*
X07343Y-14028D01*
X07343Y-13886D01*
X07314Y-13800D01*
X07343Y-13714D01*
X07000Y-13371D01*
X06929Y-13442D01*
X06929Y-13300D01*
X06586Y-12957D01*
X06487Y-12990D01*
X06407Y-13209D01*
X06418Y-13444D01*
X06487Y-13610D01*
X06586Y-13643D01*
X06929Y-13300D01*
X06929Y-13442D01*
X06657Y-13714D01*
X06685Y-13800D01*
X06657Y-13886D01*
X07000Y-14229D01*
X07343Y-13886D01*
X07343Y-14028D01*
X07071Y-14300D01*
X07414Y-14643D01*
X07513Y-14610D01*
X07593Y-14391D01*
X07593Y-15166D01*
X07508Y-14961D01*
X07339Y-14792D01*
X07319Y-14784D01*
X07343Y-14714D01*
X07000Y-14371D01*
X06929Y-14442D01*
X06929Y-14300D01*
X06586Y-13957D01*
X06487Y-13990D01*
X06407Y-14209D01*
X06418Y-14444D01*
X06487Y-14610D01*
X06586Y-14643D01*
X06929Y-14300D01*
X06929Y-14442D01*
X06657Y-14714D01*
X06680Y-14784D01*
X06661Y-14792D01*
X06492Y-14961D01*
X06401Y-15181D01*
X06401Y-15419D01*
X06492Y-15639D01*
X06653Y-15800D01*
X06492Y-15961D01*
X06401Y-16181D01*
X06401Y-16419D01*
X06492Y-16639D01*
X06661Y-16808D01*
X06680Y-16815D01*
X06657Y-16886D01*
X07000Y-17229D01*
X07343Y-16886D01*
X07319Y-16815D01*
X07339Y-16808D01*
X07508Y-16639D01*
X07599Y-16419D01*
X07599Y-19510D01*
X07593Y-19510D01*
X07593Y-18891D01*
X07593Y-17391D01*
X07582Y-17156D01*
X07513Y-16990D01*
X07414Y-16957D01*
X07071Y-17300D01*
X07414Y-17643D01*
X07513Y-17610D01*
X07593Y-17391D01*
X07593Y-18891D01*
X07582Y-18656D01*
X07513Y-18490D01*
X07414Y-18457D01*
X07343Y-18528D01*
X07343Y-18386D01*
X07343Y-17714D01*
X07000Y-17371D01*
X06929Y-17442D01*
X06929Y-17300D01*
X06586Y-16957D01*
X06487Y-16990D01*
X06407Y-17209D01*
X06418Y-17444D01*
X06487Y-17610D01*
X06586Y-17643D01*
X06929Y-17300D01*
X06929Y-17442D01*
X06657Y-17714D01*
X06690Y-17813D01*
X06909Y-17893D01*
X07144Y-17882D01*
X07310Y-17813D01*
X07343Y-17714D01*
X07343Y-18386D01*
X07310Y-18287D01*
X07091Y-18207D01*
X06856Y-18218D01*
X06690Y-18287D01*
X06657Y-18386D01*
X07000Y-18729D01*
X07343Y-18386D01*
X07343Y-18528D01*
X07071Y-18800D01*
X07414Y-19143D01*
X07513Y-19110D01*
X07593Y-18891D01*
X07593Y-19510D01*
X07528Y-19510D01*
X07508Y-19461D01*
X07339Y-19292D01*
X07319Y-19284D01*
X07343Y-19214D01*
X07000Y-18871D01*
X06929Y-18942D01*
X06929Y-18800D01*
X06586Y-18457D01*
X06487Y-18490D01*
X06407Y-18709D01*
X06418Y-18944D01*
X06487Y-19110D01*
X06586Y-19143D01*
X06929Y-18800D01*
X06929Y-18942D01*
X06657Y-19214D01*
X06680Y-19284D01*
X06661Y-19292D01*
X06492Y-19461D01*
X06401Y-19681D01*
X06401Y-19919D01*
X06492Y-20139D01*
X06653Y-20300D01*
X06492Y-20461D01*
X06401Y-20681D01*
X06401Y-20919D01*
X06492Y-21139D01*
X06661Y-21308D01*
X06680Y-21315D01*
X06657Y-21386D01*
X07000Y-21729D01*
X07343Y-21386D01*
X07319Y-21315D01*
X07339Y-21308D01*
X07508Y-21139D01*
X07599Y-20919D01*
X07599Y-20681D01*
X07508Y-20461D01*
X07347Y-20300D01*
X07508Y-20139D01*
X07528Y-20090D01*
X10200Y-20090D01*
X10311Y-20068D01*
X10405Y-20005D01*
X12858Y-17552D01*
X17358Y-17552D01*
X17358Y-17715D01*
X17366Y-17734D01*
X17358Y-17754D01*
X17358Y-17853D01*
X17358Y-18029D01*
X17396Y-18121D01*
X17466Y-18191D01*
X17557Y-18229D01*
X17656Y-18229D01*
X18061Y-18229D01*
X12780Y-23510D01*
X07593Y-23510D01*
X07593Y-22891D01*
X07593Y-21891D01*
X07582Y-21656D01*
X07513Y-21490D01*
X07414Y-21457D01*
X07071Y-21800D01*
X07414Y-22143D01*
X07513Y-22110D01*
X07593Y-21891D01*
X07593Y-22891D01*
X07582Y-22656D01*
X07513Y-22490D01*
X07414Y-22457D01*
X07343Y-22528D01*
X07343Y-22386D01*
X07314Y-22300D01*
X07343Y-22214D01*
X07000Y-21871D01*
X06929Y-21942D01*
X06929Y-21800D01*
X06586Y-21457D01*
X06487Y-21490D01*
X06407Y-21709D01*
X06418Y-21944D01*
X06487Y-22110D01*
X06586Y-22143D01*
X06929Y-21800D01*
X06929Y-21942D01*
X06657Y-22214D01*
X06685Y-22300D01*
X06657Y-22386D01*
X07000Y-22729D01*
X07343Y-22386D01*
X07343Y-22528D01*
X07071Y-22800D01*
X07414Y-23143D01*
X07513Y-23110D01*
X07593Y-22891D01*
X07593Y-23510D01*
X07528Y-23510D01*
X07508Y-23461D01*
X07339Y-23292D01*
X07319Y-23284D01*
X07343Y-23214D01*
X07000Y-22871D01*
X06929Y-22942D01*
X06929Y-22800D01*
X06586Y-22457D01*
X06487Y-22490D01*
X06407Y-22709D01*
X06418Y-22944D01*
X06487Y-23110D01*
X06586Y-23143D01*
X06929Y-22800D01*
X06929Y-22942D01*
X06657Y-23214D01*
X06680Y-23284D01*
X06661Y-23292D01*
X06492Y-23461D01*
X06401Y-23681D01*
X06401Y-23919D01*
X06492Y-24139D01*
X06653Y-24300D01*
X06492Y-24461D01*
X06401Y-24681D01*
X06401Y-24919D01*
X06492Y-25139D01*
X06661Y-25308D01*
X06680Y-25315D01*
X06657Y-25386D01*
X07000Y-25729D01*
X07343Y-25386D01*
X07319Y-25315D01*
X07339Y-25308D01*
X07508Y-25139D01*
X07599Y-24919D01*
X07599Y-24681D01*
X07508Y-24461D01*
X07347Y-24300D01*
X07508Y-24139D01*
X07528Y-24090D01*
X12900Y-24090D01*
X13011Y-24068D01*
X13105Y-24005D01*
X18453Y-18657D01*
X18453Y-19112D01*
X18491Y-19204D01*
X18561Y-19274D01*
X18652Y-19312D01*
X18751Y-19312D01*
X18927Y-19312D01*
X18944Y-19304D01*
X18962Y-19312D01*
X19061Y-19312D01*
X19237Y-19312D01*
X19259Y-19302D01*
X19282Y-19312D01*
X19381Y-19312D01*
X19557Y-19312D01*
X19574Y-19304D01*
X19592Y-19312D01*
X19625Y-19312D01*
X19686Y-19251D01*
X19686Y-19237D01*
X19719Y-19204D01*
X19735Y-19165D01*
X19751Y-19204D01*
X19760Y-19213D01*
X19760Y-19450D01*
X19782Y-19561D01*
X19845Y-19655D01*
X19851Y-19661D01*
X19800Y-19712D01*
X19800Y-20200D01*
X19800Y-20250D01*
X19800Y-20350D01*
X19800Y-20400D01*
X19800Y-20888D01*
X19862Y-20950D01*
X20099Y-20949D01*
X20110Y-20944D01*
X20110Y-21650D01*
X20111Y-21656D01*
X20099Y-21651D01*
X19862Y-21650D01*
X19800Y-21712D01*
X19800Y-22250D01*
X20238Y-22250D01*
X20300Y-22188D01*
X20299Y-21959D01*
X20501Y-22161D01*
X20501Y-22749D01*
X20539Y-22841D01*
X20609Y-22911D01*
X20700Y-22949D01*
X20799Y-22949D01*
X21399Y-22949D01*
X21491Y-22911D01*
X21561Y-22841D01*
X21599Y-22750D01*
X21599Y-22651D01*
X21599Y-21851D01*
X21561Y-21759D01*
X21491Y-21689D01*
X21400Y-21651D01*
X21301Y-21651D01*
X20811Y-21651D01*
X20690Y-21530D01*
X20690Y-20944D01*
X20700Y-20949D01*
X20799Y-20949D01*
X21399Y-20949D01*
X21491Y-20911D01*
X21561Y-20841D01*
X21599Y-20750D01*
X21599Y-20651D01*
X21599Y-19851D01*
X21561Y-19759D01*
X21491Y-19689D01*
X21400Y-19651D01*
X21301Y-19651D01*
X20970Y-19651D01*
X20970Y-19312D01*
X21137Y-19312D01*
X21229Y-19274D01*
X21246Y-19256D01*
X21902Y-19912D01*
X21876Y-19975D01*
X21876Y-20074D01*
X21876Y-20624D01*
X21914Y-20716D01*
X21984Y-20786D01*
X22075Y-20824D01*
X22174Y-20824D01*
X22724Y-20824D01*
X22816Y-20786D01*
X22886Y-20716D01*
X22900Y-20682D01*
X22914Y-20716D01*
X22984Y-20786D01*
X23075Y-20824D01*
X23174Y-20824D01*
X23724Y-20824D01*
X23816Y-20786D01*
X23886Y-20716D01*
X23924Y-20625D01*
X23924Y-20526D01*
X23924Y-19976D01*
X23886Y-19884D01*
X23816Y-19814D01*
X23782Y-19799D01*
X23816Y-19786D01*
X23886Y-19716D01*
X23924Y-19625D01*
X23924Y-19526D01*
X23924Y-18976D01*
X23886Y-18884D01*
X23816Y-18814D01*
X23725Y-18776D01*
X23690Y-18776D01*
X23690Y-18100D01*
X23668Y-17989D01*
X23605Y-17895D01*
X23085Y-17375D01*
X22991Y-17312D01*
X22880Y-17290D01*
X22422Y-17290D01*
X22422Y-17123D01*
X22412Y-17100D01*
X22422Y-17078D01*
X22422Y-16979D01*
X22422Y-16803D01*
X22414Y-16785D01*
X22422Y-16768D01*
X22422Y-16669D01*
X22422Y-16493D01*
X22414Y-16475D01*
X22422Y-16458D01*
X22422Y-16359D01*
X22422Y-16183D01*
X22412Y-16160D01*
X22422Y-16138D01*
X22422Y-16039D01*
X22422Y-15863D01*
X22414Y-15845D01*
X22422Y-15828D01*
X22422Y-15729D01*
X22422Y-15590D01*
X26471Y-15590D01*
X26492Y-15639D01*
X26653Y-15800D01*
X26492Y-15961D01*
X26401Y-16181D01*
X26401Y-16419D01*
X26492Y-16639D01*
X26661Y-16808D01*
X26680Y-16815D01*
X26657Y-16886D01*
X27000Y-17229D01*
X27343Y-16886D01*
X27319Y-16815D01*
X27339Y-16808D01*
X27508Y-16639D01*
X27599Y-16419D01*
X27599Y-20181D01*
X27593Y-20166D01*
X27593Y-19391D01*
X27593Y-18391D01*
X27593Y-17391D01*
X27582Y-17156D01*
X27513Y-16990D01*
X27414Y-16957D01*
X27071Y-17300D01*
X27414Y-17643D01*
X27513Y-17610D01*
X27593Y-17391D01*
X27593Y-18391D01*
X27582Y-18156D01*
X27513Y-17990D01*
X27414Y-17957D01*
X27343Y-18028D01*
X27343Y-17886D01*
X27314Y-17800D01*
X27343Y-17714D01*
X27000Y-17371D01*
X26929Y-17442D01*
X26929Y-17300D01*
X26586Y-16957D01*
X26487Y-16990D01*
X26407Y-17209D01*
X26418Y-17444D01*
X26487Y-17610D01*
X26586Y-17643D01*
X26929Y-17300D01*
X26929Y-17442D01*
X26657Y-17714D01*
X26685Y-17800D01*
X26657Y-17886D01*
X27000Y-18229D01*
X27343Y-17886D01*
X27343Y-18028D01*
X27071Y-18300D01*
X27414Y-18643D01*
X27513Y-18610D01*
X27593Y-18391D01*
X27593Y-19391D01*
X27582Y-19156D01*
X27513Y-18990D01*
X27414Y-18957D01*
X27343Y-19028D01*
X27343Y-18886D01*
X27314Y-18800D01*
X27343Y-18714D01*
X27000Y-18371D01*
X26929Y-18442D01*
X26929Y-18300D01*
X26586Y-17957D01*
X26487Y-17990D01*
X26407Y-18209D01*
X26418Y-18444D01*
X26487Y-18610D01*
X26586Y-18643D01*
X26929Y-18300D01*
X26929Y-18442D01*
X26657Y-18714D01*
X26685Y-18800D01*
X26657Y-18886D01*
X27000Y-19229D01*
X27343Y-18886D01*
X27343Y-19028D01*
X27071Y-19300D01*
X27414Y-19643D01*
X27513Y-19610D01*
X27593Y-19391D01*
X27593Y-20166D01*
X27508Y-19961D01*
X27339Y-19792D01*
X27319Y-19784D01*
X27343Y-19714D01*
X27000Y-19371D01*
X26929Y-19442D01*
X26929Y-19300D01*
X26586Y-18957D01*
X26487Y-18990D01*
X26407Y-19209D01*
X26418Y-19444D01*
X26487Y-19610D01*
X26586Y-19643D01*
X26929Y-19300D01*
X26929Y-19442D01*
X26657Y-19714D01*
X26680Y-19784D01*
X26661Y-19792D01*
X26492Y-19961D01*
X26401Y-20181D01*
X26401Y-20419D01*
X26492Y-20639D01*
X26653Y-20800D01*
X26492Y-20961D01*
X26401Y-21181D01*
X26401Y-21419D01*
X26492Y-21639D01*
X26661Y-21808D01*
X26881Y-21899D01*
X27119Y-21899D01*
X27339Y-21808D01*
X27508Y-21639D01*
X27599Y-21419D01*
X27599Y-22630D01*
X26450Y-23779D01*
X26450Y-25779D01*
X25479Y-26750D01*
X20300Y-26750D01*
X20300Y-22412D01*
X20238Y-22350D01*
X19800Y-22350D01*
X19800Y-22888D01*
X19862Y-22950D01*
X20099Y-22949D01*
X20191Y-22911D01*
X20261Y-22841D01*
X20299Y-22750D01*
X20299Y-22651D01*
X20300Y-22412D01*
X20300Y-26750D01*
X19700Y-26750D01*
X19700Y-22888D01*
X19700Y-22350D01*
X19700Y-22250D01*
X19700Y-21712D01*
X19700Y-20888D01*
X19700Y-20350D01*
X19700Y-20250D01*
X19700Y-19712D01*
X19638Y-19650D01*
X19401Y-19651D01*
X19309Y-19689D01*
X19239Y-19759D01*
X19201Y-19850D01*
X19201Y-19949D01*
X19200Y-20188D01*
X19262Y-20250D01*
X19700Y-20250D01*
X19700Y-20350D01*
X19262Y-20350D01*
X19200Y-20412D01*
X19201Y-20651D01*
X19201Y-20750D01*
X19239Y-20841D01*
X19309Y-20911D01*
X19401Y-20949D01*
X19638Y-20950D01*
X19700Y-20888D01*
X19700Y-21712D01*
X19638Y-21650D01*
X19401Y-21651D01*
X19309Y-21689D01*
X19239Y-21759D01*
X19201Y-21850D01*
X19201Y-21949D01*
X19200Y-22188D01*
X19262Y-22250D01*
X19700Y-22250D01*
X19700Y-22350D01*
X19262Y-22350D01*
X19200Y-22412D01*
X19201Y-22651D01*
X19201Y-22750D01*
X19239Y-22841D01*
X19309Y-22911D01*
X19401Y-22949D01*
X19638Y-22950D01*
X19700Y-22888D01*
X19700Y-26750D01*
X07593Y-26750D01*
X07593Y-25891D01*
X07582Y-25656D01*
X07513Y-25490D01*
X07414Y-25457D01*
X07071Y-25800D01*
X07414Y-26143D01*
X07513Y-26110D01*
X07593Y-25891D01*
X07593Y-26750D01*
X07343Y-26750D01*
X07343Y-26214D01*
X07000Y-25871D01*
X06929Y-25942D01*
X06929Y-25800D01*
X06586Y-25457D01*
X06487Y-25490D01*
X06407Y-25709D01*
X06418Y-25944D01*
X06487Y-26110D01*
X06586Y-26143D01*
X06929Y-25800D01*
X06929Y-25942D01*
X06657Y-26214D01*
X06690Y-26313D01*
X06909Y-26393D01*
X07144Y-26382D01*
X07310Y-26313D01*
X07343Y-26214D01*
X07343Y-26750D01*
X06521Y-26750D01*
X06050Y-26279D01*
X06050Y-09821D01*
X06521Y-09350D01*
X27479Y-09350D01*
X27950Y-09821D01*
X27950Y-22279D01*
M02*
