M48
;DRILL file {Pcbnew (2012-apr-16-27)-stable} date Thu 02 May 2013 11:00:07 AM CLT
;FORMAT={-:-/ absolute / inch / decimal}
FMAT,2
INCH,TZ
T1C0.030
T2C0.032
T3C0.039
%
G90
G05
M72
T1
X1.890Y1.280
X2.090Y1.280
T2
X0.870Y1.910
X1.585Y1.485
X1.585Y1.595
X2.240Y2.030
X2.340Y1.930
X2.340Y2.030
T3
X0.700Y1.030
X0.700Y1.130
X0.700Y1.230
X0.700Y1.330
X0.700Y1.430
X0.700Y1.530
X0.700Y1.630
X0.700Y1.730
X0.700Y1.880
X0.700Y1.980
X0.700Y2.080
X0.700Y2.180
X0.700Y2.280
X0.700Y2.380
X0.700Y2.480
X0.700Y2.580
X1.065Y1.540
X1.165Y1.540
X1.265Y1.540
X1.365Y1.540
X2.700Y1.030
X2.700Y1.130
X2.700Y1.230
X2.700Y1.330
X2.700Y1.430
X2.700Y1.530
X2.700Y1.630
X2.700Y1.730
X2.700Y1.830
X2.700Y1.930
X2.700Y2.030
X2.700Y2.130
T0
M30
